<mxfile host="drawio-plugin" modified="2021-10-21T16:25:53.629Z" agent="5.0 (Windows NT 6.2; Win64; x64) AppleWebKit/537.36 (KHTML, like Gecko) Chrome/89.0.4389.114 Safari/537.36" etag="Az8HYieZf0Ns-9eknz1w" version="14.7.4" type="embed"><diagram id="9WflH_AWErKLLo7M90Dl" name="Page-1"><mxGraphModel dx="1307" dy="426" grid="1" gridSize="10" guides="1" tooltips="1" connect="1" arrows="1" fold="1" page="1" pageScale="1" pageWidth="850" pageHeight="1100" math="0" shadow="0"><root><mxCell id="0"/><mxCell id="1" parent="0"/><mxCell id="84" value="" style="rounded=0;whiteSpace=wrap;html=1;" parent="1" vertex="1"><mxGeometry x="67.5" y="110" width="70" height="310" as="geometry"/></mxCell><mxCell id="2" value="&lt;br&gt;img background" style="rounded=0;whiteSpace=wrap;html=1;" parent="1" vertex="1"><mxGeometry x="55" y="30" width="740" height="450" as="geometry"/></mxCell><mxCell id="3" value="&amp;nbsp; &amp;nbsp; &amp;nbsp; &amp;nbsp; &amp;nbsp; &amp;nbsp; &amp;nbsp; &amp;nbsp; &amp;nbsp; &amp;nbsp; &amp;nbsp; &amp;nbsp; &amp;nbsp; &amp;nbsp; &amp;nbsp; &amp;nbsp; &amp;nbsp; navbar" style="rounded=0;whiteSpace=wrap;html=1;" parent="1" vertex="1"><mxGeometry x="70" y="40" width="710" height="60" as="geometry"/></mxCell><mxCell id="4" value="logo" style="ellipse;whiteSpace=wrap;html=1;" parent="1" vertex="1"><mxGeometry x="80" y="45" width="45" height="50" as="geometry"/></mxCell><mxCell id="6" value="My profile" style="rounded=0;whiteSpace=wrap;html=1;fillColor=#dae8fc;strokeColor=#6c8ebf;" parent="1" vertex="1"><mxGeometry x="650" y="47.5" width="120" height="20" as="geometry"/></mxCell><mxCell id="8" value="Pets" style="rounded=0;whiteSpace=wrap;html=1;fillColor=#dae8fc;strokeColor=#6c8ebf;" parent="1" vertex="1"><mxGeometry x="140" y="47.5" width="60" height="45" as="geometry"/></mxCell><mxCell id="13" value="Donation" style="rounded=0;whiteSpace=wrap;html=1;fillColor=#dae8fc;strokeColor=#6c8ebf;" parent="1" vertex="1"><mxGeometry x="210" y="47.5" width="60" height="45" as="geometry"/></mxCell><mxCell id="15" value="Adopt" style="rounded=0;whiteSpace=wrap;html=1;fillColor=#dae8fc;strokeColor=#6c8ebf;" parent="1" vertex="1"><mxGeometry x="350" y="47.5" width="100" height="45" as="geometry"/></mxCell><mxCell id="16" value="Dog" style="rounded=0;whiteSpace=wrap;html=1;fillColor=#fff2cc;strokeColor=#d6b656;" parent="1" vertex="1"><mxGeometry x="140" y="110" width="60" height="45" as="geometry"/></mxCell><mxCell id="17" value="Visit a pet" style="rounded=0;whiteSpace=wrap;html=1;fillColor=#dae8fc;strokeColor=#6c8ebf;" parent="1" vertex="1"><mxGeometry x="280" y="47.5" width="60" height="45" as="geometry"/></mxCell><mxCell id="18" value="Make a donation" style="rounded=0;whiteSpace=wrap;html=1;fillColor=#fff2cc;strokeColor=#d6b656;" parent="1" vertex="1"><mxGeometry x="210" y="110" width="60" height="45" as="geometry"/></mxCell><mxCell id="19" value="Make an appoiment" style="rounded=0;whiteSpace=wrap;html=1;fillColor=#fff2cc;strokeColor=#d6b656;" parent="1" vertex="1"><mxGeometry x="280" y="110" width="60" height="45" as="geometry"/></mxCell><mxCell id="22" value="About adoption" style="rounded=0;whiteSpace=wrap;html=1;fillColor=#fff2cc;strokeColor=#d6b656;" parent="1" vertex="1"><mxGeometry x="350" y="110" width="100" height="45" as="geometry"/></mxCell><mxCell id="24" value="Logout" style="rounded=0;whiteSpace=wrap;html=1;fillColor=#dae8fc;strokeColor=#6c8ebf;" parent="1" vertex="1"><mxGeometry x="650" y="75" width="120" height="20" as="geometry"/></mxCell><mxCell id="26" value="Cat" style="rounded=0;whiteSpace=wrap;html=1;fillColor=#fff2cc;strokeColor=#d6b656;" parent="1" vertex="1"><mxGeometry x="140" y="160" width="60" height="45" as="geometry"/></mxCell><mxCell id="27" value="Bird" style="rounded=0;whiteSpace=wrap;html=1;fillColor=#fff2cc;strokeColor=#d6b656;" parent="1" vertex="1"><mxGeometry x="140" y="215" width="60" height="45" as="geometry"/></mxCell><mxCell id="28" value="Rabbit" style="rounded=0;whiteSpace=wrap;html=1;fillColor=#fff2cc;strokeColor=#d6b656;" parent="1" vertex="1"><mxGeometry x="140" y="270" width="60" height="45" as="geometry"/></mxCell><mxCell id="29" value="Guinea pig" style="rounded=0;whiteSpace=wrap;html=1;fillColor=#fff2cc;strokeColor=#d6b656;" parent="1" vertex="1"><mxGeometry x="140" y="330" width="60" height="45" as="geometry"/></mxCell><mxCell id="34" value="Pets" style="rounded=0;whiteSpace=wrap;html=1;fillColor=#dae8fc;strokeColor=#6c8ebf;" parent="1" vertex="1"><mxGeometry x="140" y="47.5" width="60" height="45" as="geometry"/></mxCell><mxCell id="35" value="Pets" style="rounded=0;whiteSpace=wrap;html=1;fillColor=#dae8fc;strokeColor=#6c8ebf;" parent="1" vertex="1"><mxGeometry x="140" y="47.5" width="60" height="45" as="geometry"/></mxCell><mxCell id="36" value="Visit a pet" style="rounded=0;whiteSpace=wrap;html=1;fillColor=#dae8fc;strokeColor=#6c8ebf;" parent="1" vertex="1"><mxGeometry x="280" y="47.5" width="60" height="45" as="geometry"/></mxCell><mxCell id="37" value="Adopt" style="rounded=0;whiteSpace=wrap;html=1;fillColor=#dae8fc;strokeColor=#6c8ebf;" parent="1" vertex="1"><mxGeometry x="350" y="47.5" width="100" height="45" as="geometry"/></mxCell><mxCell id="38" value="Pets" style="rounded=0;whiteSpace=wrap;html=1;fillColor=#dae8fc;strokeColor=#6c8ebf;" parent="1" vertex="1"><mxGeometry x="140" y="47.5" width="60" height="45" as="geometry"/></mxCell><mxCell id="39" value="Visit a pet" style="rounded=0;whiteSpace=wrap;html=1;fillColor=#dae8fc;strokeColor=#6c8ebf;" parent="1" vertex="1"><mxGeometry x="280" y="47.5" width="60" height="45" as="geometry"/></mxCell><mxCell id="40" value="Adopt" style="rounded=0;whiteSpace=wrap;html=1;fillColor=#dae8fc;strokeColor=#6c8ebf;" parent="1" vertex="1"><mxGeometry x="350" y="47.5" width="100" height="45" as="geometry"/></mxCell><mxCell id="41" value="Make a donation" style="rounded=0;whiteSpace=wrap;html=1;fillColor=#fff2cc;strokeColor=#d6b656;" parent="1" vertex="1"><mxGeometry x="210" y="110" width="60" height="45" as="geometry"/></mxCell><mxCell id="42" value="Make an appoiment" style="rounded=0;whiteSpace=wrap;html=1;fillColor=#fff2cc;strokeColor=#d6b656;" parent="1" vertex="1"><mxGeometry x="280" y="110" width="60" height="45" as="geometry"/></mxCell><mxCell id="43" value="Pets" style="rounded=0;whiteSpace=wrap;html=1;fillColor=#dae8fc;strokeColor=#6c8ebf;" parent="1" vertex="1"><mxGeometry x="140" y="47.5" width="60" height="45" as="geometry"/></mxCell><mxCell id="44" value="Visit a pet" style="rounded=0;whiteSpace=wrap;html=1;fillColor=#dae8fc;strokeColor=#6c8ebf;" parent="1" vertex="1"><mxGeometry x="280" y="47.5" width="60" height="45" as="geometry"/></mxCell><mxCell id="45" value="Adopt" style="rounded=0;whiteSpace=wrap;html=1;fillColor=#dae8fc;strokeColor=#6c8ebf;" parent="1" vertex="1"><mxGeometry x="350" y="47.5" width="100" height="45" as="geometry"/></mxCell><mxCell id="46" value="Make a donation" style="rounded=0;whiteSpace=wrap;html=1;fillColor=#fff2cc;strokeColor=#d6b656;" parent="1" vertex="1"><mxGeometry x="210" y="110" width="60" height="45" as="geometry"/></mxCell><mxCell id="47" value="Make an appoiment" style="rounded=0;whiteSpace=wrap;html=1;fillColor=#fff2cc;strokeColor=#d6b656;" parent="1" vertex="1"><mxGeometry x="280" y="110" width="60" height="45" as="geometry"/></mxCell><mxCell id="48" value="Cat" style="rounded=0;whiteSpace=wrap;html=1;fillColor=#fff2cc;strokeColor=#d6b656;" parent="1" vertex="1"><mxGeometry x="140" y="160" width="60" height="45" as="geometry"/></mxCell><mxCell id="49" value="Pets" style="rounded=0;whiteSpace=wrap;html=1;fillColor=#dae8fc;strokeColor=#6c8ebf;" parent="1" vertex="1"><mxGeometry x="140" y="47.5" width="60" height="45" as="geometry"/></mxCell><mxCell id="50" value="Visit a pet" style="rounded=0;whiteSpace=wrap;html=1;fillColor=#dae8fc;strokeColor=#6c8ebf;" parent="1" vertex="1"><mxGeometry x="280" y="47.5" width="60" height="45" as="geometry"/></mxCell><mxCell id="51" value="Adopt" style="rounded=0;whiteSpace=wrap;html=1;fillColor=#dae8fc;strokeColor=#6c8ebf;" parent="1" vertex="1"><mxGeometry x="350" y="47.5" width="100" height="45" as="geometry"/></mxCell><mxCell id="52" value="About donation" style="rounded=0;whiteSpace=wrap;html=1;fillColor=#fff2cc;strokeColor=#d6b656;" parent="1" vertex="1"><mxGeometry x="210" y="110" width="60" height="45" as="geometry"/></mxCell><mxCell id="53" value="About visiting a pet" style="rounded=0;whiteSpace=wrap;html=1;fillColor=#fff2cc;strokeColor=#d6b656;" parent="1" vertex="1"><mxGeometry x="280" y="110" width="60" height="45" as="geometry"/></mxCell><mxCell id="54" value="Cat" style="rounded=0;whiteSpace=wrap;html=1;fillColor=#fff2cc;strokeColor=#d6b656;" parent="1" vertex="1"><mxGeometry x="140" y="160" width="60" height="45" as="geometry"/></mxCell><mxCell id="55" value="Pets" style="rounded=0;whiteSpace=wrap;html=1;fillColor=#dae8fc;strokeColor=#6c8ebf;" parent="1" vertex="1"><mxGeometry x="140" y="47.5" width="60" height="45" as="geometry"/></mxCell><mxCell id="56" value="Visit a pet" style="rounded=0;whiteSpace=wrap;html=1;fillColor=#dae8fc;strokeColor=#6c8ebf;" parent="1" vertex="1"><mxGeometry x="280" y="47.5" width="60" height="45" as="geometry"/></mxCell><mxCell id="57" value="Adopt" style="rounded=0;whiteSpace=wrap;html=1;fillColor=#dae8fc;strokeColor=#6c8ebf;" parent="1" vertex="1"><mxGeometry x="350" y="47.5" width="100" height="45" as="geometry"/></mxCell><mxCell id="58" value="Make a donation" style="rounded=0;whiteSpace=wrap;html=1;fillColor=#fff2cc;strokeColor=#d6b656;" parent="1" vertex="1"><mxGeometry x="210" y="160" width="60" height="45" as="geometry"/></mxCell><mxCell id="59" value="Visit a pet" style="rounded=0;whiteSpace=wrap;html=1;fillColor=#fff2cc;strokeColor=#d6b656;" parent="1" vertex="1"><mxGeometry x="280" y="160" width="60" height="45" as="geometry"/></mxCell><mxCell id="60" value="Cat" style="rounded=0;whiteSpace=wrap;html=1;fillColor=#fff2cc;strokeColor=#d6b656;" parent="1" vertex="1"><mxGeometry x="140" y="160" width="60" height="45" as="geometry"/></mxCell><mxCell id="62" value="Adopt a pet" style="rounded=0;whiteSpace=wrap;html=1;fillColor=#fff2cc;strokeColor=#d6b656;" parent="1" vertex="1"><mxGeometry x="350" y="160" width="100" height="45" as="geometry"/></mxCell><mxCell id="63" value="Bird" style="rounded=0;whiteSpace=wrap;html=1;fillColor=#fff2cc;strokeColor=#d6b656;" parent="1" vertex="1"><mxGeometry x="140" y="215" width="60" height="45" as="geometry"/></mxCell><mxCell id="64" value="Rabbit" style="rounded=0;whiteSpace=wrap;html=1;fillColor=#fff2cc;strokeColor=#d6b656;" parent="1" vertex="1"><mxGeometry x="140" y="270" width="60" height="45" as="geometry"/></mxCell><mxCell id="65" value="Guinea pig" style="rounded=0;whiteSpace=wrap;html=1;fillColor=#fff2cc;strokeColor=#d6b656;" parent="1" vertex="1"><mxGeometry x="140" y="330" width="60" height="45" as="geometry"/></mxCell><mxCell id="69" value="Pets" style="rounded=0;whiteSpace=wrap;html=1;fillColor=#dae8fc;strokeColor=#6c8ebf;" parent="1" vertex="1"><mxGeometry x="140" y="47.5" width="60" height="45" as="geometry"/></mxCell><mxCell id="70" value="Donation" style="rounded=0;whiteSpace=wrap;html=1;fillColor=#dae8fc;strokeColor=#6c8ebf;" parent="1" vertex="1"><mxGeometry x="210" y="47.5" width="60" height="45" as="geometry"/></mxCell><mxCell id="71" value="Pets" style="rounded=0;whiteSpace=wrap;html=1;fillColor=#dae8fc;strokeColor=#6c8ebf;" parent="1" vertex="1"><mxGeometry x="140" y="47.5" width="60" height="45" as="geometry"/></mxCell><mxCell id="72" value="Donation" style="rounded=0;whiteSpace=wrap;html=1;fillColor=#dae8fc;strokeColor=#6c8ebf;" parent="1" vertex="1"><mxGeometry x="210" y="47.5" width="60" height="45" as="geometry"/></mxCell><mxCell id="73" value="Pets" style="rounded=0;whiteSpace=wrap;html=1;fillColor=#dae8fc;strokeColor=#6c8ebf;" parent="1" vertex="1"><mxGeometry x="140" y="47.5" width="60" height="45" as="geometry"/></mxCell><mxCell id="74" value="Donation" style="rounded=0;whiteSpace=wrap;html=1;fillColor=#dae8fc;strokeColor=#6c8ebf;" parent="1" vertex="1"><mxGeometry x="210" y="47.5" width="60" height="45" as="geometry"/></mxCell><mxCell id="75" value="Pets" style="rounded=0;whiteSpace=wrap;html=1;fillColor=#dae8fc;strokeColor=#6c8ebf;" parent="1" vertex="1"><mxGeometry x="140" y="47.5" width="60" height="45" as="geometry"/></mxCell><mxCell id="76" value="Donation" style="rounded=0;whiteSpace=wrap;html=1;fillColor=#dae8fc;strokeColor=#6c8ebf;" parent="1" vertex="1"><mxGeometry x="210" y="47.5" width="60" height="45" as="geometry"/></mxCell><mxCell id="77" value="Visit a pet" style="rounded=0;whiteSpace=wrap;html=1;fillColor=#dae8fc;strokeColor=#6c8ebf;" parent="1" vertex="1"><mxGeometry x="280" y="47.5" width="60" height="45" as="geometry"/></mxCell><mxCell id="78" value="Pets" style="rounded=0;whiteSpace=wrap;html=1;fillColor=#dae8fc;strokeColor=#6c8ebf;" parent="1" vertex="1"><mxGeometry x="140" y="47.5" width="60" height="45" as="geometry"/></mxCell><mxCell id="79" value="Donation" style="rounded=0;whiteSpace=wrap;html=1;fillColor=#dae8fc;strokeColor=#6c8ebf;" parent="1" vertex="1"><mxGeometry x="210" y="47.5" width="60" height="45" as="geometry"/></mxCell><mxCell id="80" value="Visit a pet" style="rounded=0;whiteSpace=wrap;html=1;fillColor=#dae8fc;strokeColor=#6c8ebf;" parent="1" vertex="1"><mxGeometry x="280" y="47.5" width="60" height="45" as="geometry"/></mxCell><mxCell id="81" value="Adopt" style="rounded=0;whiteSpace=wrap;html=1;fillColor=#dae8fc;strokeColor=#6c8ebf;" parent="1" vertex="1"><mxGeometry x="350" y="47.5" width="100" height="45" as="geometry"/></mxCell><mxCell id="86" value="navbar" style="rounded=0;whiteSpace=wrap;html=1;fillColor=#f5f5f5;strokeColor=#666666;fontColor=#333333;" parent="1" vertex="1"><mxGeometry x="60" y="112.5" width="70" height="322.5" as="geometry"/></mxCell><mxCell id="87" value="View my appoiments" style="rounded=0;whiteSpace=wrap;html=1;" parent="1" vertex="1"><mxGeometry x="62.5" y="130" width="62.5" height="50" as="geometry"/></mxCell><mxCell id="88" value="View my donations" style="rounded=0;whiteSpace=wrap;html=1;" parent="1" vertex="1"><mxGeometry x="62.5" y="190" width="60" height="60" as="geometry"/></mxCell><mxCell id="89" value="View my adopted pet" style="rounded=0;whiteSpace=wrap;html=1;" parent="1" vertex="1"><mxGeometry x="62.5" y="290" width="60" height="60" as="geometry"/></mxCell><mxCell id="90" value="user home page" style="text;html=1;align=center;verticalAlign=middle;resizable=0;points=[];autosize=1;strokeColor=none;" parent="1" vertex="1"><mxGeometry x="50" width="100" height="20" as="geometry"/></mxCell><mxCell id="91" value="Search" style="rounded=0;whiteSpace=wrap;html=1;fillColor=#ffe6cc;strokeColor=#d79b00;" parent="1" vertex="1"><mxGeometry x="520" y="50" width="120" height="40" as="geometry"/></mxCell></root></mxGraphModel></diagram></mxfile>